{
  "accessors": [
    {
      "bufferView": 1,
      "componentType": 5126,
      "count": 1024,
      "max": [
        1.3619931936264038,
        1.347137451171875,
        0.48699918389320374
      ],
      "min": [
        -1.3619931936264038,
        -1.3471375703811646,
        -0.32027170062065125
      ],
      "type": "VEC3"
    },
    {
      "bufferView": 1,
      "byteOffset": 12288,
      "componentType": 5126,
      "count": 1024,
      "max": [
        0.7962321639060974,
        0.8776981830596924,
        0.9999222755432129
      ],
      "min": [
        -0.7962321639060974,
        -0.8776978254318237,
        -0.9999222755432129
      ],
      "type": "VEC3"
    },
    {
      "bufferView": 0,
      "componentType": 5125,
      "count": 1536,
      "type": "SCALAR"
    },
    {
      "bufferView": 1,
      "byteOffset": 24576,
      "componentType": 5126,
      "count": 976,
      "max": [
        1.3652288913726807,
        1.3652287721633911,
        1.2461429834365845
      ],
      "min": [
        -1.3652288913726807,
        -1.3652288913726807,
        0.050442252308130264
      ],
      "type": "VEC3"
    },
    {
      "bufferView": 1,
      "byteOffset": 36288,
      "componentType": 5126,
      "count": 976,
      "max": [
        0.9899808168411255,
        0.9289215207099915,
        0.9909945130348206
      ],
      "min": [
        -0.9899807572364807,
        -0.9289215207099915,
        -0.9775994420051575
      ],
      "type": "VEC3"
    },
    {
      "bufferView": 0,
      "byteOffset": 6144,
      "componentType": 5125,
      "count": 1392,
      "type": "SCALAR"
    },
    {
      "bufferView": 1,
      "byteOffset": 48000,
      "componentType": 5126,
      "count": 320,
      "max": [
        0.7395276427268982,
        0.7395275831222534,
        0.9197117686271667
      ],
      "min": [
        -0.7395274639129639,
        -0.7395275235176086,
        0.3153119683265686
      ],
      "type": "VEC3"
    },
    {
      "bufferView": 1,
      "byteOffset": 51840,
      "componentType": 5126,
      "count": 320,
      "max": [
        0.8936760425567627,
        0.8884561061859131,
        0.9681246876716614
      ],
      "min": [
        -0.8936763405799866,
        -0.8884560465812683,
        0.36716029047966003
      ],
      "type": "VEC3"
    },
    {
      "bufferView": 0,
      "byteOffset": 11712,
      "componentType": 5125,
      "count": 480,
      "type": "SCALAR"
    },
    {
      "bufferView": 1,
      "byteOffset": 55680,
      "componentType": 5126,
      "count": 1740,
      "max": [
        0.5590137243270874,
        0.5055251717567444,
        -0.2660679519176483
      ],
      "min": [
        -0.5590137243270874,
        -0.5055251717567444,
        -1.0436259508132935
      ],
      "type": "VEC3"
    },
    {
      "bufferView": 1,
      "byteOffset": 76560,
      "componentType": 5126,
      "count": 1740,
      "max": [
        0.996919572353363,
        0.9996563792228699,
        0.8924345374107361
      ],
      "min": [
        -0.996919572353363,
        -0.9996563792228699,
        -0.9999995827674866
      ],
      "type": "VEC3"
    },
    {
      "bufferView": 0,
      "byteOffset": 13632,
      "componentType": 5125,
      "count": 2676,
      "type": "SCALAR"
    },
    {
      "bufferView": 1,
      "byteOffset": 97440,
      "componentType": 5126,
      "count": 342,
      "max": [
        0.6997348070144653,
        0.7035889029502869,
        1.1966654062271118
      ],
      "min": [
        -0.6997342109680176,
        -0.6882137060165405,
        -0.4411409795284271
      ],
      "type": "VEC3"
    },
    {
      "bufferView": 1,
      "byteOffset": 101544,
      "componentType": 5126,
      "count": 342,
      "max": [
        1.0,
        0.9308652877807617,
        1.0
      ],
      "min": [
        -1.0,
        -0.9516613483428955,
        -0.9481543898582458
      ],
      "type": "VEC3"
    },
    {
      "bufferView": 0,
      "byteOffset": 24336,
      "componentType": 5125,
      "count": 534,
      "type": "SCALAR"
    },
    {
      "bufferView": 1,
      "byteOffset": 105648,
      "componentType": 5126,
      "count": 15,
      "max": [
        0.5358288288116455,
        0.5387800931930542,
        -0.33136945962905884
      ],
      "min": [
        -0.5358282327651978,
        -0.5270063877105713,
        -0.33136945962905884
      ],
      "type": "VEC3"
    },
    {
      "bufferView": 1,
      "byteOffset": 105828,
      "componentType": 5126,
      "count": 15,
      "max": [
        0.0,
        0.0,
        -1.0
      ],
      "min": [
        0.0,
        0.0,
        -1.0
      ],
      "type": "VEC3"
    },
    {
      "bufferView": 0,
      "byteOffset": 26472,
      "componentType": 5125,
      "count": 39,
      "type": "SCALAR"
    },
    {
      "bufferView": 1,
      "byteOffset": 106008,
      "componentType": 5126,
      "count": 720,
      "max": [
        0.49520665407180786,
        0.44513535499572754,
        -0.5471488833427429
      ],
      "min": [
        -0.49520665407180786,
        -0.44513535499572754,
        -0.9973808526992798
      ],
      "type": "VEC3"
    },
    {
      "bufferView": 1,
      "byteOffset": 114648,
      "componentType": 5126,
      "count": 720,
      "max": [
        0.940057635307312,
        0.9651440978050232,
        0.42613178491592407
      ],
      "min": [
        -0.940057635307312,
        -0.9651440978050232,
        -0.9035528898239136
      ],
      "type": "VEC3"
    },
    {
      "bufferView": 0,
      "byteOffset": 26628,
      "componentType": 5125,
      "count": 1080,
      "type": "SCALAR"
    }
  ],
  "asset": {
    "extras": {
      "author": "valencia3dartist (https://sketchfab.com/Sebastian.Valencia.Valencia)",
      "license": "CC-BY-SA-4.0 (http://creativecommons.org/licenses/by-sa/4.0/)",
      "source": "https://sketchfab.com/3d-models/ufo-073c8a70d9434e439a42d9e519340c0b",
      "title": "UFO"
    },
    "generator": "Sketchfab-12.66.0",
    "version": "2.0"
  },
  "bufferViews": [
    {
      "buffer": 0,
      "byteLength": 30948,
      "name": "floatBufferViews",
      "target": 34963
    },
    {
      "buffer": 0,
      "byteLength": 123288,
      "byteOffset": 30948,
      "byteStride": 12,
      "name": "floatBufferViews",
      "target": 34962
    }
  ],
  "buffers": [
    {
      "byteLength": 154236,
      "uri": "scene.bin"
    }
  ],
  "materials": [
    {
      "doubleSided": true,
      "name": "material",
      "pbrMetallicRoughness": {
        "baseColorFactor": [
          0.0509804,
          0.109804,
          0.164706,
          1.0
        ],
        "metallicFactor": 0.0,
        "roughnessFactor": 0.8239417257461427
      }
    },
    {
      "doubleSided": true,
      "name": "material_1",
      "pbrMetallicRoughness": {
        "baseColorFactor": [
          0.945098,
          0.372549,
          0.121569,
          1.0
        ],
        "metallicFactor": 0.0,
        "roughnessFactor": 0.8239417257461427
      }
    },
    {
      "doubleSided": true,
      "name": "material_2",
      "pbrMetallicRoughness": {
        "baseColorFactor": [
          0.167761,
          0.621714,
          0.64,
          1.0
        ],
        "metallicFactor": 0.0,
        "roughnessFactor": 0.8239417257461427
      }
    },
    {
      "doubleSided": true,
      "name": "material_3",
      "pbrMetallicRoughness": {
        "baseColorFactor": [
          0.137087,
          0.129112,
          0.137583,
          1.0
        ],
        "metallicFactor": 0.0,
        "roughnessFactor": 0.8239417257461427
      }
    },
    {
      "doubleSided": true,
      "name": "material_4",
      "pbrMetallicRoughness": {
        "baseColorFactor": [
          0.613033,
          0.64,
          0.619711,
          1.0
        ],
        "metallicFactor": 0.0,
        "roughnessFactor": 0.8239417257461427
      }
    }
  ],
  "meshes": [
    {
      "name": "Cylinder.007_M9L_0",
      "primitives": [
        {
          "attributes": {
            "NORMAL": 1,
            "POSITION": 0
          },
          "indices": 2,
          "material": 0,
          "mode": 4
        }
      ]
    },
    {
      "name": "Object017_M7_0",
      "primitives": [
        {
          "attributes": {
            "NORMAL": 4,
            "POSITION": 3
          },
          "indices": 5,
          "material": 1,
          "mode": 4
        }
      ]
    },
    {
      "name": "Object018_M2_0",
      "primitives": [
        {
          "attributes": {
            "NORMAL": 7,
            "POSITION": 6
          },
          "indices": 8,
          "material": 2,
          "mode": 4
        }
      ]
    },
    {
      "name": "Object019_M1_0",
      "primitives": [
        {
          "attributes": {
            "NORMAL": 10,
            "POSITION": 9
          },
          "indices": 11,
          "material": 3,
          "mode": 4
        }
      ]
    },
    {
      "name": "Object020_M1_0",
      "primitives": [
        {
          "attributes": {
            "NORMAL": 13,
            "POSITION": 12
          },
          "indices": 14,
          "material": 3,
          "mode": 4
        }
      ]
    },
    {
      "name": "Object021_M9L_0",
      "primitives": [
        {
          "attributes": {
            "NORMAL": 16,
            "POSITION": 15
          },
          "indices": 17,
          "material": 0,
          "mode": 4
        }
      ]
    },
    {
      "name": "Object022_M3_0",
      "primitives": [
        {
          "attributes": {
            "NORMAL": 19,
            "POSITION": 18
          },
          "indices": 20,
          "material": 4,
          "mode": 4
        }
      ]
    }
  ],
  "nodes": [
    {
      "children": [
        1
      ],
      "matrix": [
        1.0,
        0.0,
        0.0,
        0.0,
        0.0,
        2.220446049250313e-16,
        -1.0,
        0.0,
        0.0,
        1.0,
        2.220446049250313e-16,
        0.0,
        0.0,
        0.0,
        0.0,
        1.0
      ],
      "name": "Sketchfab_model"
    },
    {
      "children": [
        2
      ],
      "matrix": [
        1.0,
        0.0,
        0.0,
        0.0,
        0.0,
        0.0,
        1.0,
        0.0,
        0.0,
        -1.0,
        0.0,
        0.0,
        0.0,
        0.0,
        0.0,
        1.0
      ],
      "name": "bce22199b9194b0c886b972bc2e37d0d.fbx"
    },
    {
      "children": [
        3,
        6,
        9,
        12,
        15,
        18,
        21
      ],
      "name": "RootNode"
    },
    {
      "children": [
        4
      ],
      "matrix": [
        152.75733947753906,
        0.0,
        0.0,
        0.0,
        0.0,
        3.391894309368905e-14,
        -152.75733947753906,
        0.0,
        0.0,
        152.75733947753906,
        3.391894309368905e-14,
        0.0,
        8158.5673828125,
        180.1106414794922,
        212.6129913330078,
        1.0
      ],
      "name": "Cylinder.007"
    },
    {
      "children": [
        5
      ],
      "matrix": [
        1.0,
        0.0,
        -0.0,
        0.0,
        0.0,
        1.0,
        0.0,
        0.0,
        0.0,
        0.0,
        1.0,
        0.0,
        0.0,
        9.988907123670288e-08,
        -0.08336371928453445,
        1.0
      ],
      "name": "Object_4"
    },
    {
      "mesh": 0,
      "name": "Cylinder.007_M9L_0"
    },
    {
      "children": [
        7
      ],
      "matrix": [
        152.75733947753906,
        0.0,
        0.0,
        0.0,
        0.0,
        3.391894309368905e-14,
        -152.75733947753906,
        0.0,
        0.0,
        152.75733947753906,
        3.391894309368905e-14,
        0.0,
        8158.5673828125,
        266.4076843261719,
        212.6129913330078,
        1.0
      ],
      "name": "Object017"
    },
    {
      "children": [
        8
      ],
      "matrix": [
        1.0,
        0.0,
        -0.0,
        0.0,
        0.0,
        1.0,
        0.0,
        0.0,
        0.0,
        0.0,
        1.0,
        0.0,
        0.0,
        9.988907123670288e-08,
        -0.6482926607131958,
        1.0
      ],
      "name": "Object_7"
    },
    {
      "mesh": 1,
      "name": "Object017_M7_0"
    },
    {
      "children": [
        10
      ],
      "matrix": [
        152.75733947753906,
        0.0,
        0.0,
        0.0,
        0.0,
        3.391894309368905e-14,
        -152.75733947753906,
        0.0,
        0.0,
        152.75733947753906,
        3.391894309368905e-14,
        0.0,
        8158.5673828125,
        261.7056884765625,
        212.61297607421875,
        1.0
      ],
      "name": "Object018"
    },
    {
      "children": [
        11
      ],
      "matrix": [
        1.0,
        0.0,
        -0.0,
        0.0,
        0.0,
        1.0,
        0.0,
        0.0,
        0.0,
        0.0,
        1.0,
        0.0,
        0.0,
        0.0,
        -0.6175118684768677,
        1.0
      ],
      "name": "Object_10"
    },
    {
      "mesh": 2,
      "name": "Object018_M2_0"
    },
    {
      "children": [
        13
      ],
      "matrix": [
        152.75733947753906,
        0.0,
        0.0,
        0.0,
        0.0,
        3.391894309368905e-14,
        -152.75733947753906,
        0.0,
        0.0,
        152.75733947753906,
        3.391894309368905e-14,
        0.0,
        8158.5673828125,
        67.34354400634766,
        212.61297607421875,
        1.0
      ],
      "name": "Object019"
    },
    {
      "children": [
        14
      ],
      "matrix": [
        1.0,
        0.0,
        -0.0,
        0.0,
        0.0,
        1.0,
        0.0,
        0.0,
        0.0,
        0.0,
        1.0,
        0.0,
        0.0,
        0.0,
        0.6548469066619873,
        1.0
      ],
      "name": "Object_13"
    },
    {
      "mesh": 3,
      "name": "Object019_M1_0"
    },
    {
      "children": [
        16
      ],
      "matrix": [
        152.75733947753906,
        0.0,
        0.0,
        0.0,
        0.0,
        3.391894309368905e-14,
        -152.75733947753906,
        0.0,
        0.0,
        152.75733947753906,
        3.391894309368905e-14,
        0.0,
        8158.5673828125,
        225.08216857910156,
        211.4386444091797,
        1.0
      ],
      "name": "Object020"
    },
    {
      "children": [
        17
      ],
      "matrix": [
        1.0,
        0.0,
        -0.0,
        0.0,
        0.0,
        1.0,
        0.0,
        0.0,
        0.0,
        0.0,
        1.0,
        0.0,
        0.0,
        -0.007687562610954046,
        -0.37776219844818115,
        1.0
      ],
      "name": "Object_16"
    },
    {
      "mesh": 4,
      "name": "Object020_M1_0"
    },
    {
      "children": [
        19
      ],
      "matrix": [
        152.75733947753906,
        0.0,
        0.0,
        0.0,
        0.0,
        3.391894309368905e-14,
        -152.75733947753906,
        0.0,
        0.0,
        152.75733947753906,
        3.391894309368905e-14,
        0.0,
        8158.5673828125,
        116.76473999023438,
        211.71371459960938,
        1.0
      ],
      "name": "Object021"
    },
    {
      "children": [
        20
      ],
      "matrix": [
        1.0,
        0.0,
        -0.0,
        0.0,
        0.0,
        1.0,
        0.0,
        0.0,
        0.0,
        0.0,
        1.0,
        0.0,
        0.0,
        -0.0058868625201284885,
        0.3313194513320923,
        1.0
      ],
      "name": "Object_19"
    },
    {
      "mesh": 5,
      "name": "Object021_M9L_0"
    },
    {
      "children": [
        22
      ],
      "matrix": [
        152.75733947753906,
        0.0,
        0.0,
        0.0,
        0.0,
        3.391894309368905e-14,
        -152.75733947753906,
        0.0,
        0.0,
        152.75733947753906,
        3.391894309368905e-14,
        0.0,
        8158.5673828125,
        49.40709686279297,
        212.61297607421875,
        1.0
      ],
      "name": "Object022"
    },
    {
      "children": [
        23
      ],
      "matrix": [
        1.0,
        0.0,
        -0.0,
        0.0,
        0.0,
        1.0,
        0.0,
        0.0,
        0.0,
        0.0,
        1.0,
        0.0,
        0.0,
        0.0,
        0.772264838218689,
        1.0
      ],
      "name": "Object_22"
    },
    {
      "mesh": 6,
      "name": "Object022_M3_0"
    }
  ],
  "scene": 0,
  "scenes": [
    {
      "name": "Sketchfab_Scene",
      "nodes": [
        0
      ]
    }
  ]
}
